<svg width="22" height="22" viewBox="0 0 22 22" fill="none" xmlns="http://www.w3.org/2000/svg">
<g clip-path="url(#clip0_525_293)">
<path d="M21.3314 8.63391C20.5039 7.27883 19.4601 6.0684 18.2413 5.05066L20.808 2.484C20.975 2.31111 21.0674 2.07956 21.0653 1.83921C21.0632 1.59887 20.9668 1.36895 20.7968 1.199C20.6269 1.02904 20.397 0.932635 20.1566 0.930546C19.9163 0.928458 19.6847 1.02085 19.5118 1.18783L16.7206 3.98275C14.9903 2.955 13.0121 2.41934 10.9997 2.43358C5.3246 2.43358 2.0906 6.31841 0.667931 8.63391C0.228415 9.34479 -0.00439453 10.1641 -0.00439453 10.9998C-0.00439453 11.8356 0.228415 12.6549 0.667931 13.3657C1.49546 14.7208 2.5393 15.9313 3.75801 16.949L1.19135 19.5157C1.1038 19.6002 1.03396 19.7014 0.985921 19.8132C0.93788 19.925 0.912592 20.0453 0.911535 20.167C0.910477 20.2888 0.93367 20.4095 0.979761 20.5221C1.02585 20.6348 1.09392 20.7371 1.17999 20.8232C1.26605 20.9093 1.3684 20.9773 1.48106 21.0234C1.59371 21.0695 1.71442 21.0927 1.83613 21.0916C1.95785 21.0906 2.07813 21.0653 2.18997 21.0173C2.30181 20.9692 2.40295 20.8994 2.48751 20.8118L5.28518 18.0142C7.01334 19.0417 8.98913 19.5783 10.9997 19.5661C16.6748 19.5661 19.9088 15.6812 21.3314 13.3657C21.7709 12.6549 22.0038 11.8356 22.0038 10.9998C22.0038 10.1641 21.7709 9.34479 21.3314 8.63391ZM2.22993 12.406C1.9688 11.9835 1.83049 11.4965 1.83049 10.9998C1.83049 10.5031 1.9688 10.0162 2.22993 9.59366C3.45276 7.60816 6.21651 4.26691 10.9997 4.26691C12.5216 4.25839 14.0221 4.62518 15.3685 5.33483L13.5233 7.18008C12.6432 6.5958 11.5881 6.33399 10.537 6.43909C9.48586 6.54419 8.50347 7.00971 7.75652 7.75667C7.00956 8.50362 6.54403 9.48601 6.43894 10.5371C6.33384 11.5882 6.59565 12.6434 7.17993 13.5234L5.06243 15.6409C3.93961 14.7332 2.98145 13.6389 2.22993 12.406ZM13.7497 10.9998C13.7497 11.7292 13.46 12.4286 12.9442 12.9444C12.4285 13.4601 11.729 13.7498 10.9997 13.7498C10.5913 13.7483 10.1886 13.6542 9.82176 13.4748L13.4747 9.82191C13.6541 10.1888 13.7481 10.5915 13.7497 10.9998ZM8.24968 10.9998C8.24968 10.2705 8.53941 9.57101 9.05514 9.05529C9.57086 8.53956 10.2703 8.24983 10.9997 8.24983C11.408 8.25141 11.8108 8.34543 12.1776 8.52483L8.52468 12.1777C8.34528 11.8109 8.25126 11.4082 8.24968 10.9998ZM19.7694 12.406C18.5466 14.3915 15.7828 17.7327 10.9997 17.7327C9.47776 17.7413 7.97721 17.3745 6.63085 16.6648L8.4761 14.8196C9.35616 15.4039 10.4113 15.6657 11.4624 15.5606C12.5135 15.4555 13.4959 14.99 14.2428 14.243C14.9898 13.496 15.4553 12.5137 15.5604 11.4625C15.6655 10.4114 15.4037 9.35631 14.8194 8.47625L16.9369 6.35875C18.0598 7.2665 19.0179 8.36079 19.7694 9.59366C20.0306 10.0162 20.1689 10.5031 20.1689 10.9998C20.1689 11.4965 20.0306 11.9835 19.7694 12.406Z" fill="white"/>
</g>
<defs>
<clipPath id="clip0_525_293">
<rect width="22" height="22" fill="white"/>
</clipPath>
</defs>
</svg>
