<svg width="22" height="22" viewBox="0 0 22 22" fill="none" xmlns="http://www.w3.org/2000/svg">
<g clip-path="url(#clip0_56_1128)">
<path d="M21.3317 8.63396C19.9099 6.31846 16.6759 2.43362 10.9999 2.43362C5.32393 2.43362 2.08992 6.31846 0.668175 8.63396C0.228659 9.34484 -0.00415039 10.1641 -0.00415039 10.9999C-0.00415039 11.8357 0.228659 12.6549 0.668175 13.3658C2.08992 15.6813 5.32393 19.5661 10.9999 19.5661C16.6759 19.5661 19.9099 15.6813 21.3317 13.3658C21.7712 12.6549 22.004 11.8357 22.004 10.9999C22.004 10.1641 21.7712 9.34484 21.3317 8.63396V8.63396ZM19.7688 12.406C18.5478 14.3915 15.784 17.7328 10.9999 17.7328C6.21584 17.7328 3.45209 14.3915 2.23109 12.406C1.96997 11.9835 1.83165 11.4966 1.83165 10.9999C1.83165 10.5032 1.96997 10.0163 2.23109 9.59371C3.45209 7.60821 6.21584 4.26696 10.9999 4.26696C15.784 4.26696 18.5478 7.60454 19.7688 9.59371C20.0299 10.0163 20.1682 10.5032 20.1682 10.9999C20.1682 11.4966 20.0299 11.9835 19.7688 12.406V12.406Z" fill="white"/>
<path d="M10.9998 6.41652C10.0933 6.41652 9.2072 6.68533 8.45348 7.18895C7.69975 7.69257 7.11229 8.40839 6.76539 9.24589C6.41849 10.0834 6.32772 11.0049 6.50457 11.894C6.68142 12.7831 7.11794 13.5998 7.75893 14.2408C8.39992 14.8817 9.2166 15.3183 10.1057 15.4951C10.9948 15.672 11.9163 15.5812 12.7538 15.2343C13.5913 14.8874 14.3071 14.2999 14.8107 13.5462C15.3144 12.7925 15.5832 11.9064 15.5832 10.9999C15.5817 9.78472 15.0984 8.61978 14.2391 7.76055C13.3799 6.90133 12.215 6.41797 10.9998 6.41652V6.41652ZM10.9998 13.7499C10.4559 13.7499 9.92426 13.5886 9.47202 13.2864C9.01979 12.9842 8.66731 12.5547 8.45917 12.0522C8.25103 11.5497 8.19657 10.9968 8.30268 10.4634C8.40879 9.92991 8.6707 9.4399 9.0553 9.05531C9.43989 8.67071 9.92989 8.4088 10.4633 8.30269C10.9968 8.19658 11.5497 8.25104 12.0522 8.45918C12.5547 8.66732 12.9842 9.0198 13.2864 9.47203C13.5886 9.92427 13.7498 10.456 13.7498 10.9999C13.7498 11.7292 13.4601 12.4287 12.9444 12.9444C12.4287 13.4601 11.7292 13.7499 10.9998 13.7499Z" fill="white"/>
</g>
<defs>
<clipPath id="clip0_56_1128">
<rect width="22" height="22" fill="white"/>
</clipPath>
</defs>
</svg>
