<svg width="613" height="720" viewBox="0 0 613 720" fill="none" xmlns="http://www.w3.org/2000/svg">
<path d="M498.606 83.8095C507.39 108.115 554.855 177.343 540.769 200.477C526.682 223.61 452.272 177.507 430.991 194.85C409.71 212.192 455.106 262.519 438.622 283.723C422.137 304.926 368.03 275.164 351.865 296.625C335.7 318.085 377.835 365.787 361.031 386.733C344.226 407.679 289.128 377.12 271.204 397.165C253.281 417.21 294.201 463.934 274.998 482.95C255.796 501.965 193.919 465.95 179.033 488.44C164.147 510.93 225.786 574.331 203.546 590.902C181.306 607.472 89.7253 547.549 72.2815 567.98C54.8378 588.412 109.913 663.765 119.816 688.971" stroke="url(#paint0_linear_525_363)" stroke-width="2" stroke-linecap="round"/>
<path d="M476.962 83.4011C486.707 106.517 536.179 171.229 523.736 194.359C511.293 217.489 436.937 176.544 417.237 194.423C397.537 212.302 444.038 258.799 429.176 280.178C414.314 301.558 360.439 275.432 345.9 297.044C331.361 318.657 374.572 362.773 359.387 383.919C344.203 405.065 289.328 378.216 273.015 398.545C256.701 418.875 298.687 462.104 281.083 481.5C263.48 500.896 201.767 469.099 188.518 491.646C175.269 514.192 238.155 572.543 217.487 589.722C196.82 606.901 105.143 553.425 89.3133 574.104C73.4838 594.784 130.632 665.05 141.506 688.983" stroke="url(#paint1_linear_525_363)" stroke-width="2" stroke-linecap="round"/>
<path d="M455.855 84.3861C466.458 106.28 517.59 166.455 506.748 189.476C495.905 212.497 421.939 176.585 403.813 194.886C385.688 213.188 433.015 255.874 419.745 277.322C406.475 298.77 353.064 276.178 340.118 297.835C327.171 319.493 371.197 360.04 357.603 381.278C344.009 402.516 289.595 379.274 274.868 399.777C260.142 420.281 302.937 460.031 286.915 479.696C270.894 499.361 209.617 471.671 197.965 494.168C186.314 516.664 250.085 570.007 230.989 587.679C211.892 605.351 120.542 558.175 106.301 578.993C92.0602 599.812 150.896 664.979 162.632 687.607" stroke="url(#paint2_linear_525_363)" stroke-width="2" stroke-linecap="round"/>
<path d="M435.371 86.7095C446.728 107.355 499.177 162.996 489.886 185.808C480.596 208.619 407.339 177.593 390.775 196.205C374.21 214.816 422.091 253.732 410.375 275.144C398.66 296.555 345.932 277.382 334.54 298.98C323.148 320.579 367.731 357.59 355.692 378.815C343.654 400.04 289.924 380.288 276.754 400.86C263.584 421.431 306.938 457.734 292.475 477.559C278.012 497.384 217.428 473.675 207.329 496.02C197.23 518.364 261.534 566.763 244 584.814C226.465 602.866 135.848 561.816 123.163 582.668C110.477 603.519 170.621 663.603 183.11 684.902" stroke="url(#paint3_linear_525_363)" stroke-width="2" stroke-linecap="round"/>
<path d="M415.588 90.3113C427.598 109.69 481.028 160.823 473.233 183.329C465.438 205.835 393.198 179.528 378.172 198.341C363.147 217.154 411.316 252.355 401.111 273.63C390.906 294.905 339.072 279.022 329.188 300.461C319.304 321.9 364.195 355.427 353.669 376.538C343.143 397.649 290.312 381.257 278.661 401.793C267.01 422.329 310.68 455.232 297.743 475.112C284.807 494.992 225.163 475.12 216.565 497.216C207.967 519.311 272.46 562.851 256.471 581.172C240.482 599.492 150.985 564.37 139.816 585.153C128.647 605.935 189.725 660.975 202.859 680.928" stroke="url(#paint4_linear_525_363)" stroke-width="2" stroke-linecap="round"/>
<path d="M396.586 95.1267C409.144 113.227 463.226 159.899 456.866 182.009C450.505 204.119 379.571 182.347 366.057 201.254C352.542 220.161 400.743 251.722 391.998 272.764C383.253 293.806 332.508 281.072 324.081 302.257C315.654 323.442 360.611 353.55 351.548 374.45C342.485 395.35 290.755 382.175 280.579 402.577C270.403 422.979 314.152 452.547 302.705 472.379C291.257 492.212 232.786 476.019 225.631 497.773C218.476 519.527 282.828 558.318 268.36 576.798C253.892 595.279 165.883 565.864 156.184 586.479C146.486 607.094 208.134 657.153 221.805 675.752" stroke="url(#paint5_linear_525_363)" stroke-width="2" stroke-linecap="round"/>
<path d="M378.435 101.086C391.44 117.904 445.852 160.184 440.86 181.812C435.868 203.44 366.511 186.002 354.473 204.901C342.434 223.799 390.418 251.809 383.077 272.527C375.736 293.245 326.264 283.509 319.237 304.348C312.209 325.188 356.998 351.96 349.344 372.557C341.69 393.154 291.248 383.041 282.498 403.214C273.748 423.386 317.347 449.697 307.344 469.385C297.341 489.072 240.26 476.388 234.485 497.713C228.71 519.037 292.601 553.208 279.624 571.743C266.646 590.278 180.472 566.326 172.192 586.681C163.912 607.035 225.777 652.202 239.878 669.445" stroke="url(#paint6_linear_525_363)" stroke-width="2" stroke-linecap="round"/>
<path d="M361.199 108.117C374.551 123.655 428.983 161.633 425.288 182.7C421.593 203.766 354.066 190.443 343.462 209.235C332.858 228.026 380.387 252.59 374.388 272.897C368.39 293.205 320.362 286.303 314.671 306.712C308.98 327.121 353.376 350.654 347.071 370.861C340.766 391.067 291.786 383.852 284.406 403.705C277.026 423.558 320.256 446.706 311.648 466.154C303.04 485.603 247.55 476.244 243.087 497.057C238.624 517.871 301.751 547.571 290.226 566.059C278.701 584.547 194.685 565.794 187.766 585.799C180.847 605.803 242.587 646.188 257.013 662.08" stroke="url(#paint7_linear_525_363)" stroke-width="2" stroke-linecap="round"/>
<path d="M344.94 116.141C358.539 130.409 412.692 164.196 410.218 184.627C407.744 205.057 342.282 195.619 333.064 214.207C323.846 232.796 370.694 254.035 365.972 273.851C361.25 293.668 314.821 289.428 310.399 309.327C305.977 329.225 349.767 349.629 344.745 369.363C339.723 389.098 292.365 384.605 286.294 404.053C280.224 423.501 322.875 443.593 315.605 462.714C308.335 481.835 254.623 475.606 251.4 495.832C248.177 516.057 310.25 541.455 300.133 559.798C290.016 578.141 208.459 564.306 202.838 583.877C197.216 603.448 258.503 639.184 273.151 653.738" stroke="url(#paint8_linear_525_363)" stroke-width="2" stroke-linecap="round"/>
<path d="M329.711 125.079C343.462 138.092 397.049 167.818 395.716 187.545C394.383 207.272 331.201 201.473 323.315 219.769C315.429 238.064 361.381 256.112 357.864 275.362C354.347 294.612 309.659 292.854 306.433 312.168C303.208 331.481 346.188 348.88 342.38 368.066C338.572 387.252 292.981 385.298 288.154 404.261C283.326 423.225 325.2 440.382 319.207 459.091C313.215 477.799 261.449 474.496 259.389 494.064C257.328 513.632 318.076 534.913 309.316 553.017C300.556 571.121 221.733 561.905 217.342 580.964C212.952 600.023 273.47 631.263 288.24 644.5" stroke="url(#paint9_linear_525_363)" stroke-width="2" stroke-linecap="round"/>
<path d="M315.56 134.845C329.369 146.628 382.117 172.439 381.843 191.402C381.568 210.364 320.857 207.949 314.244 225.865C307.63 243.781 352.486 258.786 350.098 277.4C347.711 296.014 304.89 296.551 302.784 315.211C300.679 333.871 342.66 348.402 339.991 366.969C337.322 385.536 293.628 385.929 289.973 404.334C286.318 422.738 327.229 437.092 322.447 455.311C317.665 473.529 267.997 472.936 267.019 491.783C266.04 510.629 325.208 527.996 317.749 545.772C310.29 563.549 234.45 558.637 231.218 577.112C227.985 595.586 287.438 622.504 302.233 634.449" stroke="url(#paint10_linear_525_363)" stroke-width="2" stroke-linecap="round"/>
<path d="M302.53 145.356C316.306 155.936 367.958 177.998 368.656 196.141C369.354 214.284 311.285 214.985 305.879 232.443C300.473 249.9 344.046 262.022 342.709 279.936C341.372 297.85 300.528 300.487 299.463 318.432C298.397 336.377 339.203 348.188 337.595 366.072C335.987 383.955 294.302 386.498 291.744 404.275C289.187 422.052 328.962 433.747 325.319 451.402C321.677 469.058 274.241 470.954 274.261 489.021C274.28 507.087 331.633 520.757 325.413 538.123C319.194 555.489 246.558 554.554 244.407 572.377C242.257 590.2 300.365 612.987 315.091 623.674" stroke="url(#paint11_linear_525_363)" stroke-width="2" stroke-linecap="round"/>
<path d="M290.652 156.522C304.309 165.935 354.627 184.428 356.209 201.703C357.79 218.979 302.509 222.522 298.242 239.445C293.974 256.369 336.093 265.778 335.725 282.936C335.357 300.094 296.582 304.631 296.473 321.805C296.365 338.979 335.833 348.228 335.205 365.371C334.576 382.514 294.996 387.002 293.458 404.09C291.92 421.178 330.4 430.367 327.822 447.393C325.244 464.418 280.153 468.574 281.084 485.811C282.016 503.048 337.34 513.252 332.293 530.128C327.245 547.005 258.005 549.707 256.857 566.818C255.709 583.93 312.214 602.795 326.781 612.263" stroke="url(#paint12_linear_525_363)" stroke-width="2" stroke-linecap="round"/>
<path d="M280.03 168.259C293.488 176.55 342.26 191.688 344.629 208.055C346.998 224.422 294.61 230.503 291.399 246.821C288.189 263.139 328.71 270.032 329.219 286.383C329.728 302.734 293.085 308.952 293.842 325.305C294.599 341.658 332.591 348.528 332.851 364.877C333.112 381.226 295.701 387.437 295.094 403.778C294.487 420.119 331.537 426.982 329.938 443.314C328.339 459.646 285.671 465.812 287.42 482.174C289.169 498.536 342.286 505.538 338.332 521.85C334.377 538.162 268.674 544.126 268.439 560.471C268.204 576.815 322.878 592.004 337.203 600.303" stroke="url(#paint13_linear_525_363)" stroke-width="2" stroke-linecap="round"/>
<path d="M270.561 180.449C283.729 187.659 330.701 199.634 333.768 215.06C336.835 230.486 287.505 238.839 285.284 254.493C283.063 270.147 321.802 274.698 323.106 290.2C324.411 305.702 290.006 313.41 291.545 328.902C293.085 344.394 329.426 349.048 330.496 364.56C331.565 380.072 296.432 387.812 296.678 403.36C296.925 418.907 332.374 423.601 331.68 439.189C330.987 454.777 290.871 462.732 293.35 478.183C295.83 493.634 346.509 497.67 343.583 513.354C340.656 529.039 278.705 537.936 279.304 553.469C279.904 569.001 332.469 580.734 346.459 587.91" stroke="url(#paint14_linear_525_363)" stroke-width="2" stroke-linecap="round"/>
<path d="M262.324 193.038C275.129 199.219 320.117 208.252 323.789 222.709C327.461 237.165 281.263 247.496 279.949 262.428C278.635 277.36 315.471 279.767 317.481 294.382C319.491 308.997 287.365 317.985 289.597 332.579C291.828 347.172 326.404 349.796 328.192 364.432C329.98 379.068 297.168 388.121 298.18 402.831C299.193 417.541 332.927 420.245 333.053 435.039C333.179 449.834 295.669 459.336 298.787 473.845C301.904 488.354 349.998 489.688 348.019 504.683C346.04 519.678 287.943 531.145 289.288 545.823C290.633 560.501 340.895 569.031 354.475 575.139" stroke="url(#paint15_linear_525_363)" stroke-width="2" stroke-linecap="round"/>
<path d="M255.328 205.915C267.702 211.123 310.539 217.448 314.721 230.915C318.902 244.382 275.893 256.395 275.401 270.555C274.909 284.715 309.735 285.185 312.359 298.883C314.983 312.581 285.164 322.638 287.996 336.305C290.827 349.972 323.534 350.756 325.951 364.484C328.367 378.213 297.904 388.365 299.593 402.202C301.282 416.038 333.2 416.939 334.058 430.899C334.916 444.859 300.05 455.664 303.713 469.208C307.375 482.752 352.754 481.657 351.638 495.909C350.523 510.161 296.359 523.829 298.36 537.619C300.36 551.409 348.141 557.002 361.242 562.102" stroke="url(#paint16_linear_525_363)" stroke-width="2" stroke-linecap="round"/>
<path d="M249.578 218.986C261.455 223.282 301.992 227.143 306.589 239.608C311.186 252.072 271.4 265.471 271.643 278.816C271.886 292.16 304.609 290.904 307.755 303.661C310.901 316.419 283.403 327.335 286.742 340.053C290.082 352.772 320.831 351.914 323.783 364.711C326.735 377.508 298.638 388.545 300.913 401.479C303.187 414.413 333.201 413.703 334.702 426.794C336.203 439.884 304.003 451.75 308.116 464.312C312.229 476.874 354.783 473.631 354.445 487.093C354.108 500.554 303.931 516.054 306.496 528.929C309.061 541.804 354.203 544.734 366.758 548.893" stroke="url(#paint17_linear_525_363)" stroke-width="2" stroke-linecap="round"/>
<path d="M245.069 232.16C256.391 235.608 294.497 237.256 299.415 248.713C304.332 260.169 267.785 274.658 268.674 287.151C269.563 299.643 300.107 296.876 303.681 308.678C307.256 320.48 282.079 332.044 285.832 343.8C289.586 355.555 318.304 353.258 321.699 365.106C325.095 376.954 299.363 388.66 302.132 400.67C304.901 412.679 332.938 410.556 334.991 422.749C337.043 434.943 307.515 447.626 311.985 459.198C316.455 470.769 356.095 465.662 356.446 478.293C356.798 490.924 310.636 507.885 313.673 519.825C316.711 531.766 359.078 532.318 371.027 535.605" stroke="url(#paint18_linear_525_363)" stroke-width="2" stroke-linecap="round"/>
<path d="M241.794 245.343C252.507 248.012 288.072 247.707 293.216 258.156C298.361 268.606 265.044 283.89 266.488 295.502C267.933 307.113 296.238 303.054 300.149 313.891C304.06 324.727 281.187 336.733 285.262 347.519C289.338 358.304 315.966 354.771 319.712 365.66C323.459 376.548 300.076 388.714 303.247 399.784C306.418 410.853 332.421 407.516 334.934 418.792C337.447 430.068 310.577 443.328 315.311 453.907C320.044 464.486 356.704 457.804 357.655 469.57C358.606 481.336 316.458 499.393 319.875 510.385C323.293 521.376 362.772 519.842 374.061 522.331" stroke="url(#paint19_linear_525_363)" stroke-width="2" stroke-linecap="round"/>
<path d="M239.738 258.445C249.794 260.407 282.727 258.412 288.006 267.863C293.285 277.314 263.17 293.103 265.078 303.81C266.987 314.517 293.01 309.388 297.166 319.257C301.321 329.127 280.72 341.371 285.025 351.185C289.331 360.999 313.826 356.439 317.832 366.364C321.838 376.29 300.772 388.707 304.253 398.828C307.734 408.949 331.661 404.601 334.543 414.945C337.425 425.289 313.183 438.89 318.087 448.481C322.992 458.071 356.627 450.106 358.085 460.98C359.544 471.855 321.383 490.642 325.089 500.679C328.796 510.716 365.295 507.392 375.875 509.159" stroke="url(#paint20_linear_525_363)" stroke-width="2" stroke-linecap="round"/>
<path d="M238.879 271.376C248.236 272.705 278.468 269.289 283.792 277.756C289.115 286.223 262.151 302.232 264.431 312.019C266.711 321.807 290.427 315.829 294.736 324.736C299.045 333.644 280.669 345.926 285.114 354.775C289.558 363.623 311.894 358.244 316.068 367.21C320.242 376.176 301.447 388.64 305.147 397.812C308.847 406.983 330.67 401.827 333.829 411.233C336.989 420.639 315.326 434.347 320.311 442.961C325.297 451.575 355.884 442.617 357.758 452.58C359.633 462.544 325.405 481.703 329.308 490.786C333.211 499.87 366.663 495.057 376.493 496.181" stroke="url(#paint21_linear_525_363)" stroke-width="2" stroke-linecap="round"/>
<path d="M239.19 284.049C247.812 284.822 275.297 280.256 280.576 287.761C285.855 295.266 261.97 311.214 264.529 320.073C267.089 328.933 288.489 322.329 292.862 330.285C297.235 338.242 281.024 350.368 285.518 358.264C290.011 366.161 310.179 360.171 314.43 368.188C318.682 376.204 302.097 388.517 305.926 396.745C309.754 404.972 329.463 399.211 332.808 407.679C336.153 416.147 317.006 429.736 321.983 437.391C326.96 445.047 354.5 435.385 356.697 444.425C358.894 453.465 328.519 472.646 332.529 480.783C336.539 488.92 366.9 482.921 375.945 483.483" stroke="url(#paint22_linear_525_363)" stroke-width="2" stroke-linecap="round"/>
<path d="M240.638 296.377C248.495 296.674 273.204 291.229 278.353 297.8C283.502 304.371 262.605 319.988 265.352 327.917C268.1 335.847 287.193 328.838 291.541 335.861C295.89 342.885 281.77 354.668 286.225 361.631C290.68 368.594 308.684 362.201 312.926 369.285C317.168 376.369 302.717 388.339 306.585 395.635C310.453 402.93 328.052 396.766 331.493 404.303C334.934 411.84 318.221 425.09 323.103 431.812C327.985 438.534 352.5 428.457 354.927 436.568C357.354 444.678 330.726 463.538 334.754 470.743C338.782 477.948 366.032 471.066 374.262 471.151" stroke="url(#paint23_linear_525_363)" stroke-width="2" stroke-linecap="round"/>
<path d="M243.184 308.279C250.254 308.179 272.182 302.129 277.118 307.8C282.054 313.47 264.033 328.494 266.877 335.499C269.722 342.504 286.533 335.308 290.772 341.423C295.011 347.539 282.892 358.797 287.224 364.853C291.556 370.909 307.419 364.318 311.565 370.493C315.711 376.668 303.304 388.109 307.124 394.492C310.945 400.874 326.455 394.509 329.903 401.128C333.352 407.748 318.975 420.446 323.678 426.265C328.382 432.084 349.915 421.876 352.481 429.059C355.047 436.242 332.033 454.45 335.993 460.743C339.953 467.036 364.094 459.575 371.489 459.267" stroke="url(#paint24_linear_525_363)" stroke-width="2" stroke-linecap="round"/>
<path d="M246.784 319.674C253.049 319.26 272.212 312.874 276.856 317.685C281.5 322.496 266.224 336.674 269.076 342.766C271.928 348.859 286.499 341.691 290.545 346.929C294.592 352.167 284.374 362.728 288.5 367.909C292.626 373.09 306.385 366.504 310.352 371.799C314.319 377.094 303.854 387.831 307.542 393.325C311.23 398.82 324.686 392.45 328.056 398.172C331.425 403.894 319.271 415.839 323.716 420.792C328.161 425.746 346.779 415.684 349.392 421.947C352.005 428.211 332.45 445.448 336.258 450.857C340.066 456.266 361.125 448.524 367.669 447.911" stroke="url(#paint25_linear_525_363)" stroke-width="2" stroke-linecap="round"/>
<path d="M251.388 330.486C256.838 329.839 273.272 323.385 277.549 327.382C281.826 331.379 269.146 344.472 271.917 349.671C274.689 354.87 287.078 347.941 290.853 352.338C294.628 356.736 286.196 366.435 290.038 370.78C293.88 375.124 305.587 368.739 309.295 373.19C313.003 377.641 304.364 387.506 307.838 392.145C311.312 396.783 322.764 390.601 325.97 395.453C329.177 400.305 319.119 411.303 323.229 415.433C327.338 419.564 343.126 409.92 345.697 415.279C348.268 420.639 331.994 436.601 335.569 441.159C339.143 445.717 357.17 437.991 362.854 437.157" stroke="url(#paint26_linear_525_363)" stroke-width="2" stroke-linecap="round"/>
<path d="M256.941 340.642C261.573 339.846 275.335 333.586 279.174 336.821C283.013 340.055 272.762 351.835 275.367 356.166C277.973 360.497 288.254 354.01 291.682 357.61C295.11 361.21 288.338 369.895 291.821 373.446C295.303 376.997 305.025 371.007 308.398 374.655C311.771 378.304 304.83 387.14 308.011 390.959C311.192 394.778 320.706 388.974 323.668 392.988C326.63 397.002 318.527 406.871 322.229 410.227C325.931 413.584 338.995 404.62 341.436 409.097C343.878 413.575 330.684 427.973 333.948 431.719C337.211 435.465 352.277 428.045 357.101 427.079" stroke="url(#paint27_linear_525_363)" stroke-width="2" stroke-linecap="round"/>
<path d="M263.385 350.073C267.201 349.21 278.367 343.401 281.701 345.93C285.035 348.458 277.031 358.713 279.389 362.208C281.746 365.703 290.008 359.855 293.017 362.706C296.025 365.556 290.778 373.082 293.83 375.89C296.882 378.697 304.701 373.288 307.666 376.181C310.632 379.075 305.25 386.734 308.063 389.778C310.876 392.822 318.53 387.576 321.17 390.792C323.81 394.007 317.507 402.578 320.733 405.213C323.959 407.849 334.426 399.818 336.653 403.442C338.88 407.066 328.545 419.629 331.424 422.608C334.302 425.588 346.501 418.757 350.469 417.743" stroke="url(#paint28_linear_525_363)" stroke-width="2" stroke-linecap="round"/>
<path d="M270.654 358.715C273.663 357.866 282.33 352.759 285.098 354.642C287.866 356.525 281.912 365.057 283.941 367.754C285.971 370.451 292.318 365.433 294.84 367.587C297.362 369.742 293.492 375.977 296.046 378.096C298.601 380.214 304.614 375.565 307.103 377.755C309.592 379.946 305.62 386.294 307.994 388.611C310.369 390.928 316.256 386.416 318.499 388.878C320.742 391.34 316.074 398.454 318.76 400.428C321.446 402.402 329.462 395.546 331.393 398.352C333.324 401.157 325.606 411.631 328.029 413.894C330.452 416.157 339.901 410.189 343.025 409.214" stroke="url(#paint29_linear_525_363)" stroke-width="2" stroke-linecap="round"/>
<path d="M278.68 366.507C280.898 365.754 287.182 361.588 289.328 362.892C291.474 364.196 287.356 370.824 288.982 372.767C290.607 374.71 295.158 370.701 297.131 372.218C299.103 373.735 296.454 378.56 298.45 380.049C300.446 381.537 304.761 377.818 306.71 379.364C308.66 380.909 305.939 385.822 307.808 387.467C309.676 389.112 313.903 385.5 315.679 387.259C317.455 389.017 314.244 394.532 316.332 395.907C318.421 397.282 324.147 391.831 325.703 393.859C327.259 395.887 321.899 404.039 323.802 405.641C325.705 407.244 332.539 402.402 334.838 401.55" stroke="url(#paint30_linear_525_363)" stroke-width="2" stroke-linecap="round"/>
<path d="M287.393 373.395C288.842 372.816 292.875 369.824 294.348 370.618C295.821 371.413 293.316 375.972 294.466 377.21C295.616 378.449 298.501 375.62 299.867 376.563C301.232 377.506 299.641 380.812 301.021 381.735C302.401 382.658 305.139 380.031 306.491 380.993C307.842 381.956 306.205 385.324 307.506 386.355C308.807 387.387 311.491 384.834 312.735 385.944C313.978 387.055 312.036 390.84 313.474 391.685C314.911 392.529 318.528 388.699 319.635 389.996C320.741 391.294 317.463 396.911 318.786 397.913C320.108 398.915 324.483 395.453 325.982 394.805" stroke="url(#paint31_linear_525_363)" stroke-width="2" stroke-linecap="round"/>
<path d="M296.715 379.329C297.423 379.002 299.355 377.402 300.111 377.761C300.867 378.12 299.738 380.463 300.344 381.052C300.951 381.641 302.315 380.153 303.022 380.589C303.728 381.024 303.021 382.718 303.734 383.144C304.447 383.569 305.744 382.185 306.443 382.631C307.143 383.077 306.415 384.803 307.092 385.284C307.768 385.766 309.039 384.421 309.689 384.944C310.338 385.466 309.47 387.409 310.209 387.793C310.949 388.178 312.652 386.17 313.238 386.79C313.824 387.41 312.338 390.302 313.024 390.768C313.71 391.235 315.801 389.391 316.532 389.029" stroke="url(#paint32_linear_525_363)" stroke-width="2" stroke-linecap="round"/>
<defs>
<linearGradient id="paint0_linear_525_363" x1="357.645" y1="425.374" x2="255.994" y2="342.537" gradientUnits="userSpaceOnUse">
<stop offset="0.45" stop-color="#452277"/>
<stop offset="1" stop-color="#9061D1"/>
</linearGradient>
<linearGradient id="paint1_linear_525_363" x1="358.093" y1="421.541" x2="255.349" y2="346.567" gradientUnits="userSpaceOnUse">
<stop offset="0.45" stop-color="#452277"/>
<stop offset="1" stop-color="#9061D1"/>
</linearGradient>
<linearGradient id="paint2_linear_525_363" x1="358.279" y1="417.772" x2="254.995" y2="350.544" gradientUnits="userSpaceOnUse">
<stop offset="0.45" stop-color="#452277"/>
<stop offset="1" stop-color="#9061D1"/>
</linearGradient>
<linearGradient id="paint3_linear_525_363" x1="358.212" y1="414.081" x2="254.924" y2="354.447" gradientUnits="userSpaceOnUse">
<stop offset="0.45" stop-color="#452277"/>
<stop offset="1" stop-color="#9061D1"/>
</linearGradient>
<linearGradient id="paint4_linear_525_363" x1="357.901" y1="410.485" x2="255.127" y2="358.254" gradientUnits="userSpaceOnUse">
<stop offset="0.45" stop-color="#452277"/>
<stop offset="1" stop-color="#9061D1"/>
</linearGradient>
<linearGradient id="paint5_linear_525_363" x1="357.358" y1="407" x2="255.593" y2="361.944" gradientUnits="userSpaceOnUse">
<stop offset="0.45" stop-color="#452277"/>
<stop offset="1" stop-color="#9061D1"/>
</linearGradient>
<linearGradient id="paint6_linear_525_363" x1="356.594" y1="403.639" x2="256.311" y2="365.498" gradientUnits="userSpaceOnUse">
<stop offset="0.45" stop-color="#452277"/>
<stop offset="1" stop-color="#9061D1"/>
</linearGradient>
<linearGradient id="paint7_linear_525_363" x1="355.619" y1="400.415" x2="257.266" y2="368.899" gradientUnits="userSpaceOnUse">
<stop offset="0.45" stop-color="#452277"/>
<stop offset="1" stop-color="#9061D1"/>
</linearGradient>
<linearGradient id="paint8_linear_525_363" x1="354.448" y1="397.341" x2="258.44" y2="372.129" gradientUnits="userSpaceOnUse">
<stop offset="0.45" stop-color="#452277"/>
<stop offset="1" stop-color="#9061D1"/>
</linearGradient>
<linearGradient id="paint9_linear_525_363" x1="353.095" y1="394.429" x2="259.819" y2="375.175" gradientUnits="userSpaceOnUse">
<stop offset="0.45" stop-color="#452277"/>
<stop offset="1" stop-color="#9061D1"/>
</linearGradient>
<linearGradient id="paint10_linear_525_363" x1="351.574" y1="391.69" x2="261.383" y2="378.023" gradientUnits="userSpaceOnUse">
<stop offset="0.45" stop-color="#452277"/>
<stop offset="1" stop-color="#9061D1"/>
</linearGradient>
<linearGradient id="paint11_linear_525_363" x1="349.901" y1="389.132" x2="263.113" y2="380.663" gradientUnits="userSpaceOnUse">
<stop offset="0.45" stop-color="#452277"/>
<stop offset="1" stop-color="#9061D1"/>
</linearGradient>
<linearGradient id="paint12_linear_525_363" x1="348.092" y1="386.764" x2="264.986" y2="383.086" gradientUnits="userSpaceOnUse">
<stop offset="0.45" stop-color="#452277"/>
<stop offset="1" stop-color="#9061D1"/>
</linearGradient>
<linearGradient id="paint13_linear_525_363" x1="346.177" y1="384.609" x2="266.97" y2="385.272" gradientUnits="userSpaceOnUse">
<stop offset="0.45" stop-color="#452277"/>
<stop offset="1" stop-color="#9061D1"/>
</linearGradient>
<linearGradient id="paint14_linear_525_363" x1="344.114" y1="382.642" x2="269.106" y2="387.244" gradientUnits="userSpaceOnUse">
<stop offset="0.45" stop-color="#452277"/>
<stop offset="1" stop-color="#9061D1"/>
</linearGradient>
<linearGradient id="paint15_linear_525_363" x1="341.967" y1="380.885" x2="271.322" y2="388.976" gradientUnits="userSpaceOnUse">
<stop offset="0.45" stop-color="#452277"/>
<stop offset="1" stop-color="#9061D1"/>
</linearGradient>
<linearGradient id="paint16_linear_525_363" x1="339.751" y1="379.342" x2="273.602" y2="390.471" gradientUnits="userSpaceOnUse">
<stop offset="0.45" stop-color="#452277"/>
<stop offset="1" stop-color="#9061D1"/>
</linearGradient>
<linearGradient id="paint17_linear_525_363" x1="337.481" y1="378.015" x2="275.928" y2="391.728" gradientUnits="userSpaceOnUse">
<stop offset="0.45" stop-color="#452277"/>
<stop offset="1" stop-color="#9061D1"/>
</linearGradient>
<linearGradient id="paint18_linear_525_363" x1="335.171" y1="376.906" x2="278.281" y2="392.751" gradientUnits="userSpaceOnUse">
<stop offset="0.45" stop-color="#452277"/>
<stop offset="1" stop-color="#9061D1"/>
</linearGradient>
<linearGradient id="paint19_linear_525_363" x1="332.839" y1="376.017" x2="280.644" y2="393.542" gradientUnits="userSpaceOnUse">
<stop offset="0.45" stop-color="#452277"/>
<stop offset="1" stop-color="#9061D1"/>
</linearGradient>
<linearGradient id="paint20_linear_525_363" x1="330.501" y1="375.345" x2="282.999" y2="394.105" gradientUnits="userSpaceOnUse">
<stop offset="0.45" stop-color="#452277"/>
<stop offset="1" stop-color="#9061D1"/>
</linearGradient>
<linearGradient id="paint21_linear_525_363" x1="328.175" y1="374.89" x2="285.332" y2="394.446" gradientUnits="userSpaceOnUse">
<stop offset="0.45" stop-color="#452277"/>
<stop offset="1" stop-color="#9061D1"/>
</linearGradient>
<linearGradient id="paint22_linear_525_363" x1="325.875" y1="374.649" x2="287.624" y2="394.572" gradientUnits="userSpaceOnUse">
<stop offset="0.45" stop-color="#452277"/>
<stop offset="1" stop-color="#9061D1"/>
</linearGradient>
<linearGradient id="paint23_linear_525_363" x1="323.617" y1="374.617" x2="289.861" y2="394.49" gradientUnits="userSpaceOnUse">
<stop offset="0.45" stop-color="#452277"/>
<stop offset="1" stop-color="#9061D1"/>
</linearGradient>
<linearGradient id="paint24_linear_525_363" x1="321.418" y1="374.791" x2="292.031" y2="394.208" gradientUnits="userSpaceOnUse">
<stop offset="0.45" stop-color="#452277"/>
<stop offset="1" stop-color="#9061D1"/>
</linearGradient>
<linearGradient id="paint25_linear_525_363" x1="319.293" y1="375.163" x2="294.118" y2="393.735" gradientUnits="userSpaceOnUse">
<stop offset="0.45" stop-color="#452277"/>
<stop offset="1" stop-color="#9061D1"/>
</linearGradient>
<linearGradient id="paint26_linear_525_363" x1="317.256" y1="375.727" x2="296.111" y2="393.08" gradientUnits="userSpaceOnUse">
<stop offset="0.45" stop-color="#452277"/>
<stop offset="1" stop-color="#9061D1"/>
</linearGradient>
<linearGradient id="paint27_linear_525_363" x1="315.321" y1="376.475" x2="297.999" y2="392.253" gradientUnits="userSpaceOnUse">
<stop offset="0.45" stop-color="#452277"/>
<stop offset="1" stop-color="#9061D1"/>
</linearGradient>
<linearGradient id="paint28_linear_525_363" x1="313.503" y1="377.398" x2="299.771" y2="391.264" gradientUnits="userSpaceOnUse">
<stop offset="0.45" stop-color="#452277"/>
<stop offset="1" stop-color="#9061D1"/>
</linearGradient>
<linearGradient id="paint29_linear_525_363" x1="311.813" y1="378.486" x2="301.417" y2="390.124" gradientUnits="userSpaceOnUse">
<stop offset="0.45" stop-color="#452277"/>
<stop offset="1" stop-color="#9061D1"/>
</linearGradient>
<linearGradient id="paint30_linear_525_363" x1="310.264" y1="379.729" x2="302.929" y2="388.843" gradientUnits="userSpaceOnUse">
<stop offset="0.45" stop-color="#452277"/>
<stop offset="1" stop-color="#9061D1"/>
</linearGradient>
<linearGradient id="paint31_linear_525_363" x1="308.867" y1="381.114" x2="304.297" y2="387.431" gradientUnits="userSpaceOnUse">
<stop offset="0.45" stop-color="#452277"/>
<stop offset="1" stop-color="#9061D1"/>
</linearGradient>
<linearGradient id="paint32_linear_525_363" x1="307.632" y1="382.63" x2="305.512" y2="385.901" gradientUnits="userSpaceOnUse">
<stop offset="0.45" stop-color="#452277"/>
<stop offset="1" stop-color="#9061D1"/>
</linearGradient>
</defs>
</svg>
